<svg xmlns="http://www.w3.org/2000/svg" width="44" height="49" viewBox="0 0 44 49">
    <g fill="none" fill-rule="evenodd">
        <!-- <path fill="#3F425A" fill-rule="nonzero" d="M.004 12.252l-.002-.004L21.998 0 22 .004 22.002 0l21.996 12.248-.002.004H44v24.496h-.004l.002.004L22.002 49 22 48.996l-.002.004L.002 36.752l.002-.004H0V12.252h.004zm.24.453l-.241-.42h.483v.08a.498.498 0 0 1-.173.3l-.069.04z"/> -->
        <path fill="#4285F4" fill-rule="nonzero" d="M21.778 24.25c-2.521 0-3.84-3.917-3.84-6.016 0-2.473 1.723-4.484 3.84-4.484s3.84 2.011 3.84 4.484c0 2.1-1.32 6.016-3.84 6.016zm0-8.93c-1.294 0-2.342 1.304-2.342 2.914 0 1.608 1.048 4.446 2.342 4.446s2.342-2.838 2.342-4.446c0-1.61-1.048-2.914-2.342-2.914zm3.627 11.713c1.936 1.453 3.092 5.042 3.093 7.695 0 .867-.673 1.522-1.502 1.522H16.08c-.83 0-1.502-.655-1.502-1.522 0-2.653 1.156-6.218 3.092-7.671a1.458 1.458 0 0 1 1.683-.05c.664.442 1.42.675 2.184.675.765 0 1.52-.237 2.185-.68a1.46 1.46 0 0 1 1.683.03zm-9.326 7.647h10.916c0-2.354-.982-5.281-2.467-6.395a5.37 5.37 0 0 1-2.991.922 5.378 5.378 0 0 1-2.992-.922c-1.485 1.114-2.466 4.041-2.466 6.395zm4.032-5.015c.186.08.275.305.2.503a.355.355 0 0 1-.471.214 4.548 4.548 0 0 1-.54-.278c-.78.696-1.118 1.688-1.118 3.26 0 .213-.162.386-.362.386-.2 0-.362-.173-.362-.387 0-1.942.495-3.188 1.605-4.04a.343.343 0 0 1 .406-.012c.206.14.422.26.642.354zm1.356.11c.171 0 .31.218.31.488s-.139.487-.31.487a2.55 2.55 0 0 1-.367-.027c-.17-.025-.297-.262-.28-.53.015-.268.166-.467.338-.44.102.014.205.023.309.023zm8.995-2.427c2.024 1.216 3.316 5.059 3.316 7.235 0 .42-.33.667-.737.667H30.17a.75.75 0 0 1-.737-.76c0-.42.33-.762.737-.762h2.079c-.224-1.522-1.109-4.019-2.262-4.968-.147.045-.317.138-.516.192-.17.044-.382.124-.457.154a.725.725 0 0 1-.949-.433.761.761 0 0 1 .43-.974c.15-.059.362-.112.608-.178.194-.051.556-.147.652-.194a.76.76 0 0 1 .707.02zm-15.454 1.366a.774.774 0 0 1-.992.444c-.154-.056-.277-.217-.378-.282-1.155.996-2.035 3.346-2.262 4.86h.69c.425 0 .77.339.77.757a.764.764 0 0 1-.77.757h-1.518c-.425 0-.77-.246-.77-.664 0-2.165 1.35-6.034 3.465-7.245a.78.78 0 0 1 .743.006c.18.092.308.202.403.274.087.068.12.098.169.116.398.147.6.586.45.977zm1.198-2.98c-1.905-.07-3.068-3.426-3.068-5.262 0-2.052 1.403-3.722 3.128-3.722.419 0 .759.354.759.79 0 .436-.34.79-.759.79-.889 0-1.612.96-1.612 2.142 0 1.554 1.029 3.685 1.612 3.685.042 0 .083.003.123.01.053.008.663.062 1.12-.652a.74.74 0 0 1 1.05-.219.81.81 0 0 1 .211 1.095c-.688 1.075-1.669 1.359-2.314 1.359-.09 0-.175-.006-.25-.015zm8.79-2.438a.74.74 0 0 1 1.051.219c.474.74 1.113.654 1.119.652a.76.76 0 0 1 .124-.01c.583 0 1.611-2.13 1.611-3.685 0-1.182-.723-2.143-1.611-2.143-.42 0-.759-.353-.759-.79 0-.435.34-.789.759-.789 1.724 0 3.128 1.67 3.128 3.722 0 1.836-1.164 5.192-3.068 5.263-.075.01-.16.015-.25.015-.646 0-1.627-.283-2.315-1.359a.81.81 0 0 1 .21-1.095z"/>
    </g>
</svg>
