<svg xmlns="http://www.w3.org/2000/svg" width="89" height="101" viewBox="0 0 89 101">
    <g fill="none" fill-rule="evenodd">
        <!-- <path fill="#3F425A" fill-rule="nonzero" d="M.009 25.52l-.005-.007L44.496.517l.004.007.004-.007 44.492 24.996-.005.008H89v49.992h-.009l.005.008-44.492 24.996-.004-.007-.004.007L.004 75.521l.005-.008H0V25.521h.009zm.485.925l-.488-.856h.977v.162c-.04.24-.165.458-.35.613l-.139.08z"/> -->
        <path fill="#4285F4" fill-rule="nonzero" d="M66.726 30.867c1.691 0 2.052 2.037 2.052 3.729v37.523c0 1.692-.36 2.398-2.052 2.398H23.85c-1.691 0-4.073-.706-4.073-2.398V34.596c0-1.692 2.382-3.729 4.073-3.729H28.2V29.05a1.532 1.532 0 0 1 3.062 0v1.818h3.828V29.05a1.532 1.532 0 0 1 3.063 0v1.818h3.828V29.05a1.532 1.532 0 0 1 3.062 0v1.818h3.829V29.05a1.532 1.532 0 0 1 3.062 0v1.818h3.828V29.05a1.532 1.532 0 0 1 3.063 0v1.818h7.9zM28.2 33.93h-5.36v7.658h42.875V33.93h-6.89v2.01a1.532 1.532 0 0 1-3.063 0v-2.01h-3.828v2.01a1.532 1.532 0 0 1-3.062 0v-2.01h-3.829v2.01a1.532 1.532 0 0 1-3.062 0v-2.01h-3.828v2.01a1.532 1.532 0 0 1-3.063 0v-2.01h-3.828v2.01a1.532 1.532 0 0 1-3.062 0v-2.01zm-5.36 37.524h42.875V43.12H22.84v28.334zM41.262 57.12c-1.224.714-2.618 1.292-2.978 2.844h6.302v1.552h-8.148c.168-3.104 1.659-4.07 3.977-5.479 1.432-.878 3.184-1.854 3.184-3.74 0-1.444-1.056-2.492-2.582-2.492-1.997 0-2.562 1.624-2.6 3.176h-1.821v-.185c0-2.561 1.815-4.28 4.396-4.28 2.525 0 4.266 1.466 4.266 3.752 0 2.527-2.035 3.7-3.996 4.852zm13.796-8.604v1.756c-2.406 2.813-4.4 5.891-4.95 11.244h-1.777c.302-4.588 2.42-8.412 5.258-11.47h-7.351v-1.53h8.82zm7.038 14c.392 0 .708.345.708.769v6.922c0 .425.275.288-.117.288h-4.96c-.392 0-.71-.344-.71-.77 0-.424.318-.768.71-.768h3.66v-5.672c0-.424.317-.769.709-.769zm-7.038 6a.99.99 0 0 1 .98 1 .99.99 0 0 1-.98 1h-1.96a.99.99 0 0 1-.98-1c0-.553.438-1 .98-1h1.96z"/>
    </g>
</svg>
