<svg xmlns="http://www.w3.org/2000/svg" width="44" height="49" viewBox="0 0 44 49">
    <g fill="none" fill-rule="evenodd">
        <!-- <path fill="#3F425A" fill-rule="nonzero" d="M.004 12.252l-.002-.004L21.998 0 22 .004 22.002 0l21.996 12.248-.002.004H44v24.496h-.004l.002.004L22.002 49 22 48.996l-.002.004L.002 36.752l.002-.004H0V12.252h.004zm.24.453l-.241-.42h.483v.08a.498.498 0 0 1-.173.3l-.069.04z"/> -->
        <path fill="#4285F4" fill-rule="nonzero" d="M33.432 13.734c.063.365 1.516 8.977-2.05 12.676l-.21.219c-.794.824-1.757 1.823-2.791 2.74.023.327.255 4.312-2.046 5.94-2.133 1.507-4.603 1.915-4.708 1.932a.734.734 0 0 1-.569-.15.786.786 0 0 1-.29-.528l-.574-4.984a8.439 8.439 0 0 1-2.27-1.238l-1.16 1.203a.735.735 0 0 1-1.063 0 .8.8 0 0 1 0-1.101l1.155-1.197c-.468-.631-.89-1.434-1.2-2.31l-4.736-.587a.745.745 0 0 1-.51-.302.8.8 0 0 1-.143-.59c.015-.108.409-2.672 1.863-4.884 1.42-2.159 4.699-2.168 5.545-2.131.907-1.113 1.908-2.15 2.729-3l.202-.21c1.587-1.647 4.27-2.482 7.97-2.482 2.326 0 4.173.341 4.25.356.309.058.55.308.606.628zm-1.399.822a25.24 25.24 0 0 0-3.457-.248c-.32 0-.656.008-1 .025.23.426.635 1.025 1.257 1.75 1.208 1.41 2.562 2.53 3.427 2.88a28.028 28.028 0 0 0-.227-4.407zM11.92 24.903l3.316.41c-.126-.76-.154-1.533-.043-2.267.15-.978.645-2.007 1.308-3.017-1.108.106-2.5.465-3.13 1.422-.803 1.222-1.24 2.606-1.451 3.452zm13.57 9.118c.98-.693 1.308-2.262 1.387-3.436-1.01.73-2.044 1.284-3.022 1.445a5.7 5.7 0 0 1-.926.073c-.38 0-.774-.037-1.172-.105l.405 3.528c.815-.219 2.15-.672 3.328-1.505zm4.83-8.713c1.253-1.298 1.747-3.455 1.899-5.538-1.215-.37-2.828-1.864-3.946-3.169-.481-.56-1.188-1.457-1.51-2.211-1.88.178-3.885.69-5.095 1.944l-.202.21c-1.67 1.73-4.466 4.625-4.788 6.744-.243 1.603.402 3.605 1.253 4.843l3.82-3.962a.732.732 0 0 1 1.062 0 .8.8 0 0 1 0 1.101l-3.813 3.956c1.272.918 3.233 1.497 4.62 1.265 2.036-.335 4.824-3.233 6.49-4.963l.21-.22zm-9.162-7.945a.348.348 0 0 1 .514 0 .404.404 0 0 1 0 .547l-.14.149c-1.167 1.238-3.12 3.311-3.35 4.865a.371.371 0 0 1-.36.326.32.32 0 0 1-.056-.005c-.199-.033-.334-.231-.303-.442.268-1.802 2.246-3.902 3.555-5.291l.14-.149zm-3.542 15.46a.73.73 0 0 1 1.063 0 .806.806 0 0 1 0 1.107c-1.028 1.07-2.73 1.32-4.096 1.32a12.05 12.05 0 0 1-2.1-.185.767.767 0 0 1-.606-.631c-.08-.461-.73-4.56 1.09-6.455a.73.73 0 0 1 1.062 0 .806.806 0 0 1 0 1.108c-.92.957-.888 3.233-.749 4.515 1.231.145 3.416.178 4.336-.78zm8.243-14.573c1.456 0 2.64 1.234 2.64 2.75s-1.184 2.75-2.64 2.75c-1.456 0-2.64-1.234-2.64-2.75s1.184-2.75 2.64-2.75zm0 4.714c1.04 0 1.885-.88 1.885-1.964 0-1.083-.845-1.964-1.885-1.964s-1.886.88-1.886 1.964c0 1.083.846 1.964 1.886 1.964z"/>
    </g>
</svg>
