<?xml version="1.0" encoding="UTF-8"?>
<svg width="443px" height="521px" viewBox="0 0 443 521" version="1.1" xmlns="http://www.w3.org/2000/svg" xmlns:xlink="http://www.w3.org/1999/xlink">
    <!-- Generator: Sketch 56.2 (81672) - https://sketch.com -->
    <title>Node week logo</title>
    <desc>Created with Sketch.</desc>
    <g id="Page-1" stroke="none" stroke-width="1" fill="none" fill-rule="evenodd">
        <g id="1280" transform="translate(-213.000000, -74.000000)">
            <g id="Node-week-logo" transform="translate(213.000000, 74.000000)">
                <path d="M210.600711,41.9106404 L29.9187812,145.971533 C23.1508996,149.864789 19,157.054291 19,164.825583 L19,373.092815 C19,380.867489 23.1508996,388.053608 29.9187812,391.946864 L210.612575,496.088937 C217.368592,499.970354 225.69751,499.970354 232.443358,496.088937 L413.108338,391.946864 C419.840626,388.053608 424,380.864106 424,373.092815 L424,164.825583 C424,157.054291 419.840626,149.864789 413.064269,145.971533 L232.424713,41.9106404 C229.03823,39.9724685 225.263607,39 221.488983,39 C217.716054,39 213.941431,39.9724685 210.553252,41.9106404" id="Fill-1" fill="#3F425A"></path>
                <path d="M209.207038,21.2417181 L209.218901,21.2637047 L12.9810687,134.303463 C5.28224427,138.736295 0.496534351,146.999866 0.496534351,155.867221 L0.496534351,155.867221 L0.496534351,382.146309 C0.496534351,391.013664 5.28224427,399.277235 12.9810687,403.708376 L12.9810687,403.708376 L209.268046,516.858067 C213.12,519.070255 217.43629,520.17804 221.750885,520.17804 L221.750885,520.17804 C226.065481,520.17804 230.381771,519.070255 234.228641,516.858067 L234.228641,516.858067 L430.48342,403.706685 C438.165298,399.263705 442.93745,391.001826 442.93745,382.146309 L442.93745,382.146309 L442.93745,155.867221 C442.93745,146.999866 438.146656,138.736295 430.434275,134.303463 L430.434275,134.303463 L234.204916,21.2417181 C230.403802,19.065047 226.055313,17.9758658 221.706824,17.9758658 L221.706824,17.9758658 C217.358336,17.9758658 213.009847,19.065047 209.207038,21.2417181 L209.207038,21.2417181 Z M210.513618,514.705074 L14.2249466,401.555383 C7.29549618,397.565664 2.98767939,390.127436 2.98767939,382.146309 L2.98767939,382.146309 L2.98767939,155.867221 C2.98767939,147.884403 7.29549618,140.447866 14.2249466,136.458148 L14.2249466,136.458148 L210.500061,23.3964027 L210.486504,23.3744161 C217.332916,19.4760268 226.131573,19.4878658 232.962733,23.3964027 L232.962733,23.3964027 L429.190397,136.458148 C436.133405,140.447866 440.446305,147.886094 440.446305,155.867221 L440.446305,155.867221 L440.446305,382.146309 C440.446305,390.11898 436.150351,397.555517 429.236153,401.555383 L429.236153,401.555383 L232.983069,514.705074 C229.519191,516.697396 225.635038,517.691866 221.749191,517.691866 L221.749191,517.691866 C217.865038,517.691866 213.979191,516.697396 210.513618,514.705074 L210.513618,514.705074 Z" id="Clip-9" fill="#4285F4"></path>
                <g id="Globant" transform="translate(156.223135, 398.782305)" fill="#FFFFFF">
                    <path d="M10.545034,24.0397859 C4.05503404,24.076873 0.0324186531,18.6444841 0.000264806909,12.7325674 C-0.0352736546,6.48345629 3.50672635,1.45603962 10.352111,1.41855486 C15.385034,1.38995629 19.2874956,4.37048407 19.631034,8.60828962 L15.170111,8.63370629 C14.9365725,6.65798407 12.7958033,5.0770674 10.374111,5.08892851 C6.83718788,5.10926185 4.49503404,7.86273407 4.52211096,12.9020118 C4.54241865,16.3790118 6.31595711,20.325373 10.4248802,20.3016507 C14.2596494,20.279623 15.5745725,18.3869285 15.5576494,15.4250396 L10.8682648,15.4521507 L10.8479571,11.9192341 L19.6682648,11.8667063 L19.6885725,15.4267341 C19.7258033,20.462623 17.607034,24.0023174 10.545034,24.0397859" id="Fill-11"></path>
                    <polygon id="Fill-13" points="22.2920187 23.242698 22.1667879 1.81305907 26.3095571 1.7876424 26.4330956 23.2172813"></polygon>
                    <path d="M40.1397725,15.3074452 C40.1211571,12.1201952 38.8383879,10.5630007 36.3236187,10.5764686 C33.8088494,10.5918063 32.541311,12.1608618 32.558234,15.3481118 C32.5734648,18.5370563 33.8596187,20.1247507 36.3743879,20.1129556 C38.8891571,20.1010285 40.1550033,18.4879174 40.1397725,15.2972785 L40.1397725,15.3074452 Z M28.3443879,14.139973 C28.6625417,10.6409452 31.7391571,7.4469174 35.2303879,7.11650074 C40.7557725,6.58952851 44.2825417,9.91233407 44.311311,15.2752507 C44.3400802,20.2501396 41.2668494,23.5526118 36.3946956,23.5780285 C30.9166956,23.610223 27.8383879,19.6706396 28.3443879,14.139973 L28.3443879,14.139973 Z" id="Fill-15"></path>
                    <path d="M57.2446033,15.3315063 C57.2259879,12.1188396 56.071834,10.492173 53.6501417,10.5039697 C51.3570648,10.5175896 50.1876802,12.2137285 50.2062956,15.6263396 C50.2232187,18.2730618 51.759834,20.114923 53.7347571,20.1031188 C55.8061417,20.0928952 57.259834,18.1392007 57.2446033,15.3315063 L57.2446033,15.3315063 Z M46.330911,23.1107007 L46.2073725,1.6793674 L50.2841417,1.65564518 L50.329834,9.43822851 C51.4992187,7.77258962 53.0290648,6.96772851 54.9667571,6.95756185 C59.0113725,6.93383962 61.417834,10.2702007 61.4313725,15.0231174 C61.461834,20.3165618 58.6441417,23.4563674 54.6959879,23.4801938 C52.7819879,23.4902563 51.3147571,22.7565618 50.3179879,21.1739507 L50.2976802,23.0869785 L46.330911,23.1107007 Z" id="Fill-17"></path>
                    <path d="M73.4330494,15.286773 C73.0201263,15.7053007 72.2890494,15.9306618 70.7625879,16.2271896 C68.4085879,16.6880785 67.6470494,17.3624674 67.653774,18.7010785 C67.6622802,19.8787174 68.3662802,20.4480507 69.6710494,20.4430011 C71.8033571,20.4311063 73.3890494,18.8603563 73.4110494,17.010023 L73.4330494,15.286773 Z M73.7613571,22.972773 C73.6225879,22.5169674 73.5379725,22.0459118 73.5058187,21.569773 C72.5242802,22.6593007 70.8725879,23.4031618 68.7707417,23.415023 C65.2050494,23.4353563 63.5381263,21.6883841 63.5228956,19.1382452 C63.4958187,14.6089952 66.5233571,14.082023 70.6898187,13.4838841 C72.759511,13.1873563 73.331511,12.7688285 73.326434,11.6843841 C73.3196648,10.6626341 72.297511,10.0644952 70.6728956,10.0729674 C68.794434,10.0848285 68.0345879,11.0116896 67.8501263,12.4163841 L63.9882802,12.4384118 C64.0356648,9.18338407 65.807511,6.90943962 70.8387417,6.88232851 C75.8073571,6.85352296 77.5402802,9.06816185 77.5605879,13.0213007 L77.6181263,22.9507452 L73.7613571,22.972773 Z" id="Fill-19"></path>
                    <path d="M90.4800033,22.8761896 L90.4241571,13.3635785 C90.4106187,10.940523 89.708311,10.2746063 87.7316956,10.2864674 C85.567234,10.2983285 84.5298494,11.5149396 84.5433879,13.9074952 L84.5958494,22.9100785 L80.446311,22.9338007 L80.3566187,7.24493962 L84.3047725,7.2212174 L84.318311,9.51718962 C85.2626187,7.75666185 86.8500033,6.78405074 89.3664648,6.77035237 C92.3601571,6.75185629 94.5601571,8.55813407 94.5804648,11.9707452 L94.6430802,22.8439952 L90.4800033,22.8761896 Z" id="Fill-21"></path>
                    <path d="M106.515634,16.8959868 C106.434403,18.6260146 105.671172,19.607098 104.117634,19.6155702 C102.428711,19.6257368 101.723019,18.4819868 101.712865,16.5045702 L101.675634,10.0622924 L108.092865,10.0233202 L108.072557,6.67509796 L101.670557,6.71237574 L101.648557,2.88462574 L97.561634,2.90834796 L97.6428648,16.9434313 C97.6631725,20.323848 99.4942494,23.2484591 104.078711,23.2248802 C108.505788,23.1993202 110.401172,20.2221813 110.382557,16.9061535 L110.382557,16.8756535 L106.515634,16.8959868 Z" id="Fill-23"></path>
                    <path d="M115.266388,0.127086847 C114.802696,-0.137246486 114.210388,0.0237257358 113.946388,0.489697958 C113.817772,0.716753514 113.785619,0.987864625 113.858388,1.24033685 L115.723311,3.99042018 C119.358388,9.36011462 119.399003,16.3971424 115.826542,21.809198 L113.997157,24.5779202 C113.851619,25.0930313 114.152849,25.6284757 114.667311,25.7725035 C114.917772,25.8436702 115.188542,25.8080868 115.413619,25.6776146 L130.823772,13.7826146 C131.353465,13.3742535 131.453311,12.6117535 131.045465,12.0813924 C130.979465,11.9932813 130.899926,11.9153368 130.811926,11.8492535 L115.266388,0.127086847 Z" id="Fill-25"></path>
                </g>
                <g id="Node" transform="translate(63.966400, 176.441206)" fill="#FFFFFF">
                    <path d="M24.4623077,45.84455 C20.3736923,42.0540778 14.7061538,34.8103278 14.7061538,34.8103278 C14.7061538,34.8103278 15.9703077,43.7620778 16.0176923,49.6180778 L16.2935385,83.6713278 L0.661692308,83.7967167 L1.27897692e-13,1.82796667 L1.67030769,1.81610556 L42.9135385,39.9597444 C46.882,43.6316056 52.5495385,50.9939667 52.5495385,50.9939667 C52.5495385,50.9939667 51.4004615,41.8016056 51.3564615,36.1845222 L51.0806154,2.13127222 L66.7158462,2.00418889 L67.3758462,83.9729389 L65.7055385,83.9864944 L24.4623077,45.84455 Z" id="Fill-27"></path>
                    <path d="M148.0842,41.9757944 C147.962354,26.80035 137.844046,15.2899889 123.046508,15.4102944 C108.247277,15.5306 98.3168154,27.2019333 98.4403538,42.3773778 C98.5605077,57.5528222 108.678815,69.0614889 123.478046,68.9411833 C138.275585,68.8225722 148.206046,57.1512389 148.0842,41.9757944 M81.2566615,42.5163222 C81.0620462,18.4992667 99.5352769,0.665238889 122.926354,0.475461111 C146.315738,0.285683333 165.074969,17.8197944 165.269585,41.83685 C165.462508,65.8539056 146.989277,83.6896278 123.599892,83.8777111 C100.208815,84.0674889 81.4495846,66.5333778 81.2566615,42.5163222" id="Fill-29"></path>
                    <path d="M203.798862,67.455325 C221.818554,67.3096028 229.965323,56.4888806 229.843477,41.3134361 C229.719938,26.1379917 221.398862,15.4511306 203.379169,15.5985472 L195.9804,15.6578528 L196.400092,67.5146306 L203.798862,67.455325 Z M179.155477,1.09579722 L204.096708,0.894158333 C229.037938,0.692519444 246.9544,17.1557417 247.149015,41.1744917 C247.341938,65.1898528 229.813015,81.942825 204.753323,82.1444639 L179.812092,82.3477972 L179.155477,1.09579722 Z" id="Fill-31"></path>
                    <polygon id="Fill-33" points="260.913569 0.435472222 314.613877 1.42108547e-14 314.732338 14.6976111 277.738492 14.9958333 277.948338 40.8056111 310.525262 40.5429722 310.642031 54.8813611 278.063415 55.144 278.158185 66.8526111 316.824031 66.5408333 316.942492 81.2384444 261.570185 81.6874722"></polygon>
                </g>
                <g id="Week" transform="translate(58.124892, 276.034889)" fill="#FFFFFF">
                    <path d="M-9.9475983e-14,2.63011667 L17.6609231,2.48778333 L29.7372308,35.01095 C31.8136923,40.6110889 34.1524615,49.6746722 34.1524615,49.6746722 C34.1524615,49.6746722 36.4658462,40.4552 39.0466154,34.9363944 L54.4127692,1.47281111 L56.0813846,1.46095 L72.2209231,34.6669778 C74.8930769,40.1434222 77.3536923,49.3256167 77.3536923,49.3256167 C77.3536923,49.3256167 79.5486154,40.2247556 81.5303077,34.5924222 L92.9635385,1.87778333 L109.192769,1.74731111 L80.3778462,83.9532833 L78.7058462,83.9668389 L60.1327692,44.9217556 C57.9463077,40.4009778 55.4992308,32.8895056 55.4992308,32.8895056 C55.4992308,32.8895056 53.0555385,40.4382556 50.9452308,44.9963111 L32.2841538,84.3430056 L30.6138462,84.3548667 L-9.9475983e-14,2.63011667 Z" id="Fill-35"></path>
                    <polygon id="Fill-37" points="120.188538 1.65801389 173.890538 1.22254167 174.007308 15.9201528 137.013462 16.218375 137.221615 42.0281528 169.801923 41.7655139 169.917 56.1039028 137.336692 56.3665417 137.431462 68.0768472 176.099 67.763375 176.217462 82.4609861 120.845154 82.9100139"></polygon>
                    <polygon id="Fill-39" points="191.084554 1.08461389 244.786554 0.650836111 244.905015 15.3467528 207.909477 15.644975 208.119323 41.4564472 240.697938 41.1921139 240.813015 55.5288083 208.2344 55.7931417 208.329169 67.5034472 246.995015 67.189975 247.113477 81.8892806 191.741169 82.3366139"></polygon>
                    <path d="M284.770538,29.3630278 L306.015769,0.154194444 L324.991615,2.84217094e-14 L298.078846,37.0236111 L328.988846,81.2248889 L308.821615,81.38925 L286.963769,49.6607778 L279.162231,59.1615278 L279.345,81.6264722 L262.636846,81.7620278 L261.981923,0.510027778 L278.688385,0.376166667 L278.915154,28.4548056 C278.947308,32.3977778 278.393923,38.01825 277.952231,42.0849167 C279.825615,37.7674722 282.291308,32.7298889 284.770538,29.3630278" id="Fill-41"></path>
                </g>
                <path d="M320.88304,1.57706977 L265.101253,33.8651395 C263.0066,35.0738837 261.723053,37.3046279 261.723053,39.7153256 L261.723053,39.7153256 L261.723053,104.335605 C261.723053,106.746302 263.0066,108.977047 265.087707,110.185791 L265.087707,110.185791 L320.87796,142.497628 C322.96076,143.701279 325.53124,143.701279 327.61912,142.497628 L327.61912,142.497628 L383.41784,110.185791 C385.507413,108.977047 386.79096,106.748 386.79096,104.335605 L386.79096,104.335605 L386.79096,39.7153256 C386.79096,37.3046279 385.507413,35.0738837 383.41784,33.8651395 L383.41784,33.8651395 L327.622507,1.57706977 L327.636053,1.57706977 C326.591267,0.976093023 325.42456,0.673906977 324.26124,0.673906977 L324.26124,0.673906977 C323.094533,0.673906977 321.92952,0.976093023 320.88304,1.57706977 L320.88304,1.57706977 Z" id="Clip-47" fill="#4285F4"></path>
                <path d="M89.6890977,397.582372 C89.012406,397.194124 88.256203,397 87.5016917,397 C86.7471805,397 85.9926692,397.194124 85.3159774,397.582372 L49.187406,418.394152 C47.8306391,419.174024 47,420.610541 47,422.165221 L47,463.819165 C47,465.372157 47.8306391,466.810362 49.1789474,467.590234 L85.3109023,488.418894 C86.6609023,489.193702 88.3255639,489.193702 89.6772556,488.418894 L125.815977,467.590234 C127.169361,466.810362 128,465.373845 128,463.819165 L128,422.165221 C128,420.610541 127.169361,419.174024 125.815977,418.394152 L89.6806391,397.582372" id="Fill-49" fill="#4285F4"></path>
            </g>
        </g>
    </g>
</svg>