<svg xmlns="http://www.w3.org/2000/svg" width="50" height="50" viewBox="0 0 50 50">
    <path fill="#3F425A" fill-rule="nonzero" d="M25.633 3.125c-2.433 0-4.634 1.26-5.212 3.13L9.035 24.457H9l.02.052-.02.051h.036l11.386 19.185c.578 1.868 2.78 3.13 5.214 3.13.404 0 .814-.035 1.224-.108 2.882-.51 4.671-2.688 3.998-4.867L20.08 24.508 30.858 8.099c.673-2.178-1.116-4.357-3.998-4.866a6.984 6.984 0 0 0-1.227-.108zm0-3.125c.708 0 1.42.062 2.11.185 2.476.438 4.566 1.595 5.888 3.259 1.291 1.624 1.686 3.537 1.115 5.388-.075.24-.185.473-.33.694L24.55 24.548l9.91 15.99c.123.202.22.413.287.63.572 1.85.176 3.763-1.114 5.387-1.322 1.663-3.41 2.82-5.89 3.26-.69.123-1.4.185-2.107.185-4.2 0-7.832-2.113-8.986-5.18L5.613 26.223c-.436-.542-.647-1.172-.609-1.807.013-.555.22-1.102.594-1.582l11.064-17.69C17.832 2.098 21.45 0 25.633 0zm-10.81 22.16c-.149 0-.303-.026-.446-.082-.494-.193-.694-.662-.447-1.048l5-7.813c.246-.386.846-.54 1.342-.349.494.193.694.662.447 1.048l-5 7.813c-.176.273-.529.431-.896.431zm7-10.937c-.149 0-.303-.027-.446-.082-.494-.193-.694-.663-.447-1.049l1-1.562c.246-.386.848-.542 1.342-.35.494.193.694.663.447 1.049l-1 1.562c-.176.274-.529.432-.896.432zm16.001 10.906c-2.209 0-4 1.4-4 3.125 0 1.726 1.791 3.125 4 3.125 2.21 0 4-1.4 4-3.125 0-1.726-1.79-3.125-4-3.125zm0-3.125c4.411 0 8 2.804 8 6.25s-3.589 6.25-8 6.25c-4.41 0-8-2.804-8-6.25s3.59-6.25 8-6.25z"/>
</svg>
