<svg xmlns="http://www.w3.org/2000/svg" width="89" height="100" viewBox="0 0 89 100">
    <g fill="none" fill-rule="evenodd">
        <path fill="#3F425A" fill-rule="nonzero" d="M.009 25.004l-.005-.008L44.496 0l.004.007.004-.007 44.492 24.996-.005.008H89v49.992h-.009l.005.008L44.504 100l-.004-.007-.004.007L.004 75.004l.005-.008H0V25.004h.009zm.485.924l-.488-.856h.977v.162c-.04.24-.165.458-.35.613l-.139.08z"/>
        <path d="M19.778 25h49v50h-49z"/>
        <path fill="#4285F4" fill-rule="nonzero" d="M45.258 61c-4.323 0-7.84-3.491-7.84-7.782V32.782c0-4.29 3.517-7.782 7.84-7.782s7.84 3.491 7.84 7.782v20.436c0 4.29-3.517 7.782-7.84 7.782zm0-32.87c-2.597 0-4.704 2.082-4.704 4.65v1.115h.776a.783.783 0 1 1 0 1.565h-.776v3.13h.776a.783.783 0 1 1 0 1.566h-.776v3.13h.776a.783.783 0 1 1 0 1.565h-.776V47.2h.776a.783.783 0 1 1 0 1.565h-.776v3.13h.776a.783.783 0 1 1 0 1.566h-1.107c.04 2.348 2.128 4.58 4.7 4.58s4.66-2.232 4.7-4.58h-.453a.783.783 0 1 1 0-1.565h.792v-3.13h-.792a.783.783 0 1 1 0-1.566h.792v-2.348h-.792a.783.783 0 1 1 0-1.565h.792v-3.13h-.792a.783.783 0 1 1 0-1.566h.792v-3.13h-.792a.783.783 0 1 1 0-1.565h.792V32.78c0-2.569-2.107-4.651-4.704-4.651zm14.7 23.492c0 7.99-6.335 14.766-14.125 15.256v4.878H50.5c.86 0 1.558.727 1.558 1.622 0 .895-.698 1.622-1.558 1.622H38.035c-.86 0-1.558-.727-1.558-1.622 0-.895.698-1.622 1.558-1.622h4.682v-5.02c-7.79-1.12-13.14-7.576-13.14-15.114 0-.895.535-1.622 1.395-1.622s1.563.727 1.563 1.622c0 6.536 5.54 12.06 12.086 12.06 6.545 0 12.096-5.523 12.096-12.06 0-.895.74-1.622 1.6-1.622.86 0 1.64.727 1.64 1.622z"/>
    </g>
</svg>
