<svg xmlns="http://www.w3.org/2000/svg" width="50" height="50" viewBox="0 0 50 50">
    <path fill="#3F425A" fill-rule="nonzero" d="M25.191 3.125c2.433 0 4.634 1.26 5.212 3.13l11.386 18.202h.036l-.019.052.019.051h-.036L30.403 43.745c-.578 1.868-2.78 3.13-5.214 3.13-.404 0-.814-.035-1.224-.108-2.882-.51-4.671-2.688-3.998-4.867l10.777-17.392L19.966 8.099c-.673-2.178 1.116-4.357 3.998-4.866a6.984 6.984 0 0 1 1.227-.108zm0-3.125c-.708 0-1.419.062-2.11.185-2.476.438-4.566 1.595-5.888 3.259-1.291 1.624-1.686 3.537-1.115 5.388.075.24.185.473.33.694l9.867 15.022-9.909 15.99a2.76 2.76 0 0 0-.288.63c-.572 1.85-.176 3.763 1.114 5.387 1.322 1.663 3.411 2.82 5.89 3.26.691.123 1.4.185 2.107.185 4.2 0 7.832-2.113 8.986-5.18l11.036-18.597c.436-.542.647-1.172.609-1.807-.013-.555-.219-1.102-.594-1.582L34.162 5.144C32.993 2.098 29.374 0 25.191 0zm10.81 22.16c.149 0 .303-.026.446-.082.494-.193.694-.662.447-1.048l-5-7.813c-.246-.386-.846-.54-1.342-.349-.494.193-.694.662-.447 1.048l5 7.813c.176.273.529.431.896.431zm-7-10.937c.149 0 .303-.027.446-.082.494-.193.694-.663.447-1.049l-1-1.562c-.246-.386-.848-.542-1.342-.35-.494.193-.694.663-.447 1.049l1 1.562c.176.274.529.432.896.432zM13 22.129c2.209 0 4 1.4 4 3.125 0 1.726-1.791 3.125-4 3.125s-4-1.4-4-3.125c0-1.726 1.791-3.125 4-3.125zm0-3.125c-4.411 0-8 2.804-8 6.25s3.589 6.25 8 6.25 8-2.804 8-6.25-3.589-6.25-8-6.25z"/>
</svg>
